<?xml version="1.0" encoding="UTF-8"?>
<svg xmlns="http://www.w3.org/2000/svg" viewBox="0 0 2000 1400">
  <defs>
    <!-- 3D effect gradients -->
    <linearGradient id="bodyGradient" x1="0%" y1="0%" x2="0%" y2="100%">
      <stop offset="0%" style="stop-color:#e0e0e0;stop-opacity:1"/>
      <stop offset="50%" style="stop-color:#bdbdbd;stop-opacity:1"/>
      <stop offset="100%" style="stop-color:#757575;stop-opacity:1"/>
    </linearGradient>
    
    <linearGradient id="glassGradient" x1="0%" y1="0%" x2="0%" y2="100%">
      <stop offset="0%" style="stop-color:#64b5f6;stop-opacity:0.7"/>
      <stop offset="100%" style="stop-color:#1976d2;stop-opacity:0.9"/>
    </linearGradient>
    
    <linearGradient id="wheelGradient" x1="0%" y1="0%" x2="0%" y2="100%">
      <stop offset="0%" style="stop-color:#424242;stop-opacity:1"/>
      <stop offset="100%" style="stop-color:#212121;stop-opacity:1"/>
    </linearGradient>
    
    <!-- Sensor field patterns -->
    <radialGradient id="lidarField">
      <stop offset="0%" style="stop-color:#4caf50;stop-opacity:0.8"/>
      <stop offset="50%" style="stop-color:#4caf50;stop-opacity:0.4"/>
      <stop offset="100%" style="stop-color:#4caf50;stop-opacity:0.1"/>
    </radialGradient>
    
    <radialGradient id="radarField">
      <stop offset="0%" style="stop-color:#2196f3;stop-opacity:0.8"/>
      <stop offset="50%" style="stop-color:#2196f3;stop-opacity:0.4"/>
      <stop offset="100%" style="stop-color:#2196f3;stop-opacity:0.1"/>
    </radialGradient>
    
    <linearGradient id="cameraField" x1="0%" y1="0%" x2="100%" y2="100%">
      <stop offset="0%" style="stop-color:#ff9800;stop-opacity:0.6"/>
      <stop offset="100%" style="stop-color:#ff9800;stop-opacity:0.1"/>
    </linearGradient>
    
    <!-- Filters -->
    <filter id="shadow3d">
      <feGaussianBlur in="SourceAlpha" stdDeviation="5"/>
      <feOffset dx="5" dy="5" result="offsetblur"/>
      <feFlood flood-color="#000000" flood-opacity="0.3"/>
      <feComposite in2="offsetblur" operator="in"/>
      <feMerge>
        <feMergeNode/>
        <feMergeNode in="SourceGraphic"/>
      </feMerge>
    </filter>
    
    <filter id="glow">
      <feGaussianBlur stdDeviation="3" result="coloredBlur"/>
      <feMerge>
        <feMergeNode in="coloredBlur"/>
        <feMergeNode in="SourceGraphic"/>
      </feMerge>
    </filter>
  </defs>
  
  <!-- Background -->
  <rect width="2000" height="1400" fill="#f0f4f8"/>
  
  <!-- Grid floor -->
  <g id="grid-floor">
    <defs>
      <pattern id="floorGrid" x="0" y="0" width="50" height="50" patternUnits="userSpaceOnUse">
        <line x1="0" y1="0" x2="50" y2="0" stroke="#e0e0e0" stroke-width="1"/>
        <line x1="0" y1="0" x2="0" y2="50" stroke="#e0e0e0" stroke-width="1"/>
      </pattern>
    </defs>
    <rect x="0" y="800" width="2000" height="600" fill="url(#floorGrid)" opacity="0.5"/>
  </g>
  
  <!-- Title -->
  <text x="1000" y="40" font-family="Arial, sans-serif" font-size="32" font-weight="bold" text-anchor="middle" fill="#263238">
    A2Z 자율주행차 3D 센서 배치 및 감지 영역
  </text>
  
  <!-- Main Vehicle (3D Isometric View) -->
  <g id="vehicle-3d" transform="translate(600, 300) scale(1.2)">
    <!-- Shadow -->
    <ellipse cx="250" cy="400" rx="300" ry="80" fill="#000000" opacity="0.2" filter="url(#shadow3d)"/>
    
    <!-- Vehicle Body (3D perspective) -->
    <g id="car-body">
      <!-- Bottom -->
      <path d="M 100 250 L 400 250 L 420 350 L 80 350 Z" fill="#616161"/>
      
      <!-- Front -->
      <path d="M 80 350 L 80 200 L 100 150 L 100 250 Z" fill="url(#bodyGradient)"/>
      
      <!-- Side -->
      <path d="M 100 250 L 400 250 L 400 100 L 100 150 Z" fill="url(#bodyGradient)" filter="url(#shadow3d)"/>
      
      <!-- Back -->
      <path d="M 400 250 L 420 350 L 420 200 L 400 100 Z" fill="#9e9e9e"/>
      
      <!-- Top -->
      <path d="M 100 150 L 400 100 L 420 200 L 80 200 Z" fill="#bdbdbd"/>
      
      <!-- Windows -->
      <path d="M 130 170 L 370 130 L 380 180 L 120 190 Z" fill="url(#glassGradient)"/>
      <path d="M 120 190 L 380 180 L 390 220 L 110 230 Z" fill="url(#glassGradient)" opacity="0.8"/>
      
      <!-- Wheels -->
      <ellipse cx="150" cy="330" rx="30" ry="40" fill="url(#wheelGradient)"/>
      <ellipse cx="350" cy="320" rx="30" ry="40" fill="url(#wheelGradient)"/>
      
      <!-- Details -->
      <line x1="100" y1="230" x2="400" y2="215" stroke="#757575" stroke-width="2"/>
      <rect x="90" y="240" width="15" height="8" fill="#ff5252"/>
      <rect x="395" y="235" width="15" height="8" fill="#ff5252"/>
    </g>
  </g>
  
  <!-- Sensor Positions with 3D indicators -->
  <g id="sensors-3d">
    <!-- Front Pandar40P -->
    <g id="front-pandar40p" transform="translate(700, 400)">
      <circle cx="0" cy="0" r="25" fill="#4caf50" filter="url(#glow)"/>
      <text x="0" y="5" font-size="10" text-anchor="middle" fill="white" font-weight="bold">P40P</text>
      <line x1="0" y1="0" x2="-50" y2="-80" stroke="#4caf50" stroke-width="2"/>
      <rect x="-100" y="-110" width="100" height="40" rx="5" fill="#4caf50" opacity="0.9"/>
      <text x="-50" y="-95" font-size="11" text-anchor="middle" fill="white" font-weight="bold">Pandar40P</text>
      <text x="-50" y="-80" font-size="9" text-anchor="middle" fill="white">Front Mount</text>
      
      <!-- 360° coverage visualization -->
      <circle cx="0" cy="0" r="200" fill="url(#lidarField)" opacity="0.3">
        <animateTransform attributeName="transform" type="rotate" from="0 0 0" to="360 0 0" dur="10s" repeatCount="indefinite"/>
      </circle>
    </g>
    
    <!-- Front G32 -->
    <g id="front-g32" transform="translate(780, 380)">
      <rect x="-20" y="-15" width="40" height="30" rx="5" fill="#8bc34a" filter="url(#glow)"/>
      <text x="0" y="5" font-size="10" text-anchor="middle" fill="white" font-weight="bold">G32</text>
      
      <!-- FOV cone -->
      <path d="M 0 0 L -150 -100 L 150 -100 Z" fill="url(#lidarField)" opacity="0.4"/>
      <text x="0" y="-120" font-size="11" text-anchor="middle" fill="#689f38">120° × 10°</text>
    </g>
    
    <!-- Front Cameras -->
    <g id="front-cameras" transform="translate(700, 450)">
      <!-- Camera 1 -->
      <rect x="-80" y="-10" width="30" height="20" rx="3" fill="#ff9800" filter="url(#glow)"/>
      <text x="-65" y="5" font-size="8" text-anchor="middle" fill="white">C1</text>
      <path d="M -65 0 L -120 -60 L -10 -60 Z" fill="url(#cameraField)" opacity="0.5"/>
      
      <!-- Camera 2 -->
      <rect x="-15" y="-10" width="30" height="20" rx="3" fill="#ff9800" filter="url(#glow)"/>
      <text x="0" y="5" font-size="8" text-anchor="middle" fill="white">C2</text>
      <path d="M 0 0 L -80 -80 L 80 -80 Z" fill="url(#cameraField)" opacity="0.5"/>
      
      <!-- Camera 3 -->
      <rect x="50" y="-10" width="30" height="20" rx="3" fill="#ff9800" filter="url(#glow)"/>
      <text x="65" y="5" font-size="8" text-anchor="middle" fill="white">C3</text>
      <path d="M 65 0 L 10 -60 L 120 -60 Z" fill="url(#cameraField)" opacity="0.5"/>
    </g>
    
    <!-- Rear Pandar40P -->
    <g id="rear-pandar40p" transform="translate(980, 550)">
      <circle cx="0" cy="0" r="25" fill="#4caf50" filter="url(#glow)"/>
      <text x="0" y="5" font-size="10" text-anchor="middle" fill="white" font-weight="bold">P40P</text>
      <circle cx="0" cy="0" r="200" fill="url(#lidarField)" opacity="0.3">
        <animateTransform attributeName="transform" type="rotate" from="0 0 0" to="-360 0 0" dur="10s" repeatCount="indefinite"/>
      </circle>
    </g>
    
    <!-- Side Sensors -->
    <!-- Left G32 -->
    <g id="left-g32" transform="translate(550, 480)">
      <rect x="-20" y="-15" width="40" height="30" rx="5" fill="#8bc34a" filter="url(#glow)"/>
      <text x="0" y="5" font-size="10" text-anchor="middle" fill="white" font-weight="bold">G32</text>
      <path d="M 0 0 L -180 -50 L -180 50 Z" fill="url(#lidarField)" opacity="0.4"/>
    </g>
    
    <!-- Right G32 -->
    <g id="right-g32" transform="translate(1130, 480)">
      <rect x="-20" y="-15" width="40" height="30" rx="5" fill="#8bc34a" filter="url(#glow)"/>
      <text x="0" y="5" font-size="10" text-anchor="middle" fill="white" font-weight="bold">G32</text>
      <path d="M 0 0 L 180 -50 L 180 50 Z" fill="url(#lidarField)" opacity="0.4"/>
    </g>
    
    <!-- Radar Sensors -->
    <!-- Front Left Radar -->
    <g id="front-left-radar" transform="translate(620, 420)">
      <ellipse cx="0" cy="0" rx="20" ry="15" fill="#2196f3" filter="url(#glow)"/>
      <text x="0" y="5" font-size="8" text-anchor="middle" fill="white">MRR</text>
      <path d="M 0 0 L -100 -80 L -50 -120 Z" fill="url(#radarField)" opacity="0.5"/>
    </g>
    
    <!-- Front Right Radar -->
    <g id="front-right-radar" transform="translate(1060, 420)">
      <ellipse cx="0" cy="0" rx="20" ry="15" fill="#2196f3" filter="url(#glow)"/>
      <text x="0" y="5" font-size="8" text-anchor="middle" fill="white">MRR</text>
      <path d="M 0 0 L 100 -80 L 50 -120 Z" fill="url(#radarField)" opacity="0.5"/>
    </g>
    
    <!-- Rear Radars -->
    <g id="rear-left-radar" transform="translate(620, 550)">
      <ellipse cx="0" cy="0" rx="20" ry="15" fill="#2196f3" filter="url(#glow)"/>
      <text x="0" y="5" font-size="8" text-anchor="middle" fill="white">MRR</text>
      <path d="M 0 0 L -100 80 L -50 120 Z" fill="url(#radarField)" opacity="0.5"/>
    </g>
    
    <g id="rear-right-radar" transform="translate(1060, 550)">
      <ellipse cx="0" cy="0" rx="20" ry="15" fill="#2196f3" filter="url(#glow)"/>
      <text x="0" y="5" font-size="8" text-anchor="middle" fill="white">MRR</text>
      <path d="M 0 0 L 100 80 L 50 120 Z" fill="url(#radarField)" opacity="0.5"/>
    </g>
    
    <!-- Ultrasonic Sensors -->
    <g id="ultrasonic-sensors">
      <!-- Front ultrasonics -->
      <circle cx="650" cy="380" r="8" fill="#9c27b0" opacity="0.8"/>
      <circle cx="700" cy="370" r="8" fill="#9c27b0" opacity="0.8"/>
      <circle cx="750" cy="365" r="8" fill="#9c27b0" opacity="0.8"/>
      <circle cx="800" cy="365" r="8" fill="#9c27b0" opacity="0.8"/>
      <circle cx="850" cy="365" r="8" fill="#9c27b0" opacity="0.8"/>
      <circle cx="900" cy="365" r="8" fill="#9c27b0" opacity="0.8"/>
      <circle cx="950" cy="370" r="8" fill="#9c27b0" opacity="0.8"/>
      <circle cx="1000" cy="380" r="8" fill="#9c27b0" opacity="0.8"/>
      
      <!-- Rear ultrasonics -->
      <circle cx="650" cy="580" r="8" fill="#9c27b0" opacity="0.8"/>
      <circle cx="700" cy="590" r="8" fill="#9c27b0" opacity="0.8"/>
      <circle cx="750" cy="595" r="8" fill="#9c27b0" opacity="0.8"/>
      <circle cx="800" cy="595" r="8" fill="#9c27b0" opacity="0.8"/>
      <circle cx="850" cy="595" r="8" fill="#9c27b0" opacity="0.8"/>
      <circle cx="900" cy="595" r="8" fill="#9c27b0" opacity="0.8"/>
      <circle cx="950" cy="590" r="8" fill="#9c27b0" opacity="0.8"/>
      <circle cx="1000" cy="580" r="8" fill="#9c27b0" opacity="0.8"/>
    </g>
  </g>
  
  <!-- Top View -->
  <g id="top-view" transform="translate(1300, 200)">
    <text x="300" y="0" font-size="20" font-weight="bold" text-anchor="middle" fill="#424242">Top View - Coverage Map</text>
    
    <!-- Vehicle outline -->
    <rect x="200" y="50" width="200" height="400" rx="20" fill="#e0e0e0" stroke="#757575" stroke-width="2"/>
    
    <!-- Coverage zones -->
    <!-- 360° LiDAR coverage -->
    <circle cx="300" cy="150" r="180" fill="#4caf50" opacity="0.15"/>
    <circle cx="300" cy="350" r="180" fill="#4caf50" opacity="0.15"/>
    
    <!-- Solid-state LiDAR coverage -->
    <path d="M 300 150 L 150 50 L 450 50 Z" fill="#8bc34a" opacity="0.2"/>
    <path d="M 200 250 L 50 200 L 50 300 Z" fill="#8bc34a" opacity="0.2"/>
    <path d="M 400 250 L 550 200 L 550 300 Z" fill="#8bc34a" opacity="0.2"/>
    
    <!-- Camera coverage -->
    <path d="M 250 150 L 200 50 L 300 50 Z" fill="#ff9800" opacity="0.2"/>
    <path d="M 300 150 L 250 30 L 350 30 Z" fill="#ff9800" opacity="0.2"/>
    <path d="M 350 150 L 300 50 L 400 50 Z" fill="#ff9800" opacity="0.2"/>
    
    <!-- Radar coverage -->
    <ellipse cx="250" cy="120" rx="100" ry="60" fill="#2196f3" opacity="0.15" transform="rotate(-30 250 120)"/>
    <ellipse cx="350" cy="120" rx="100" ry="60" fill="#2196f3" opacity="0.15" transform="rotate(30 350 120)"/>
    <ellipse cx="250" cy="380" rx="100" ry="60" fill="#2196f3" opacity="0.15" transform="rotate(30 250 380)"/>
    <ellipse cx="350" cy="380" rx="100" ry="60" fill="#2196f3" opacity="0.15" transform="rotate(-30 350 380)"/>
    
    <!-- Sensor positions -->
    <circle cx="300" cy="150" r="12" fill="#4caf50" stroke="white" stroke-width="2"/>
    <circle cx="300" cy="350" r="12" fill="#4caf50" stroke="white" stroke-width="2"/>
    <rect x="290" y="100" width="20" height="15" fill="#8bc34a" stroke="white" stroke-width="2"/>
    <rect x="180" y="240" width="20" height="15" fill="#8bc34a" stroke="white" stroke-width="2"/>
    <rect x="400" y="240" width="20" height="15" fill="#8bc34a" stroke="white" stroke-width="2"/>
    
    <!-- Legend -->
    <g transform="translate(50, 500)">
      <text x="0" y="0" font-size="14" font-weight="bold" fill="#424242">Coverage Legend:</text>
      <circle cx="10" cy="20" r="8" fill="#4caf50" opacity="0.5"/>
      <text x="25" y="25" font-size="11" fill="#424242">360° LiDAR (200m)</text>
      <rect x="2" y="40" width="16" height="12" fill="#8bc34a" opacity="0.5"/>
      <text x="25" y="50" font-size="11" fill="#424242">Solid-State LiDAR (250m)</text>
      <rect x="2" y="65" width="16" height="12" fill="#ff9800" opacity="0.5"/>
      <text x="25" y="75" font-size="11" fill="#424242">Camera (100m)</text>
      <ellipse cx="10" cy="95" rx="8" ry="6" fill="#2196f3" opacity="0.5"/>
      <text x="25" y="100" font-size="11" fill="#424242">Radar (300m)</text>
      <circle cx="10" cy="120" r="5" fill="#9c27b0" opacity="0.5"/>
      <text x="25" y="125" font-size="11" fill="#424242">Ultrasonic (5m)</text>
    </g>
  </g>
  
  <!-- Side View -->
  <g id="side-view" transform="translate(100, 850)">
    <text x="400" y="0" font-size="20" font-weight="bold" text-anchor="middle" fill="#424242">Side View - Vertical Coverage</text>
    
    <!-- Ground line -->
    <line x1="0" y1="250" x2="800" y2="250" stroke="#757575" stroke-width="2"/>
    
    <!-- Vehicle side profile -->
    <path d="M 200 250 L 200 180 L 250 150 L 500 150 L 550 180 L 600 250 Z" 
          fill="#e0e0e0" stroke="#757575" stroke-width="2"/>
    
    <!-- Windows -->
    <path d="M 250 180 L 280 160 L 480 160 L 510 180 Z" fill="url(#glassGradient)"/>
    
    <!-- Wheels -->
    <ellipse cx="280" cy="250" rx="30" ry="35" fill="url(#wheelGradient)"/>
    <ellipse cx="520" cy="250" rx="30" ry="35" fill="url(#wheelGradient)"/>
    
    <!-- Vertical FOV visualization -->
    <!-- Pandar40P vertical FOV -->
    <path d="M 250 150 L 50 50 L 50 250" fill="#4caf50" opacity="0.2"/>
    <text x="80" y="40" font-size="11" fill="#4caf50">+15°</text>
    <text x="80" y="260" font-size="11" fill="#4caf50">-25°</text>
    
    <!-- G32 vertical FOV -->
    <path d="M 300 150 L 300 100 L 450 100 L 450 200 L 300 200 Z" fill="#8bc34a" opacity="0.2"/>
    <text x="375" y="95" font-size="11" fill="#689f38">±5°</text>
    
    <!-- Camera vertical FOV -->
    <path d="M 350 150 L 250 50 L 450 50 Z" fill="#ff9800" opacity="0.2"/>
    
    <!-- Height measurements -->
    <line x1="650" y1="250" x2="650" y2="150" stroke="#424242" stroke-width="1" stroke-dasharray="5,5"/>
    <text x="660" y="200" font-size="11" fill="#424242">1.5m</text>
    
    <line x1="680" y1="250" x2="680" y2="180" stroke="#424242" stroke-width="1" stroke-dasharray="5,5"/>
    <text x="690" y="215" font-size="11" fill="#424242">1.2m</text>
  </g>
  
  <!-- Sensor Specifications Table -->
  <g id="sensor-specs" transform="translate(1000, 850)">
    <rect width="900" height="450" rx="15" fill="white" stroke="#e0e0e0" stroke-width="2"/>
    <text x="450" y="30" font-size="18" font-weight="bold" text-anchor="middle" fill="#424242">Sensor Specifications & Mounting</text>
    
    <!-- Table headers -->
    <line x1="20" y1="50" x2="880" y2="50" stroke="#e0e0e0" stroke-width="2"/>
    <text x="50" y="70" font-size="12" font-weight="bold" fill="#424242">Sensor</text>
    <text x="180" y="70" font-size="12" font-weight="bold" fill="#424242">Position</text>
    <text x="300" y="70" font-size="12" font-weight="bold" fill="#424242">Height</text>
    <text x="400" y="70" font-size="12" font-weight="bold" fill="#424242">H-FOV</text>
    <text x="500" y="70" font-size="12" font-weight="bold" fill="#424242">V-FOV</text>
    <text x="600" y="70" font-size="12" font-weight="bold" fill="#424242">Range</text>
    <text x="700" y="70" font-size="12" font-weight="bold" fill="#424242">Update</text>
    <text x="800" y="70" font-size="12" font-weight="bold" fill="#424242">Data Rate</text>
    
    <line x1="20" y1="80" x2="880" y2="80" stroke="#e0e0e0" stroke-width="1"/>
    
    <!-- Sensor data rows -->
    <!-- Pandar40P Front -->
    <text x="50" y="100" font-size="11" fill="#424242">Pandar40P-F</text>
    <text x="180" y="100" font-size="11" fill="#424242">Front Roof</text>
    <text x="300" y="100" font-size="11" fill="#424242">1.8m</text>
    <text x="400" y="100" font-size="11" fill="#424242">360°</text>
    <text x="500" y="100" font-size="11" fill="#424242">40° (-25~+15)</text>
    <text x="600" y="100" font-size="11" fill="#424242">200m</text>
    <text x="700" y="100" font-size="11" fill="#424242">10/20 Hz</text>
    <text x="800" y="100" font-size="11" fill="#424242">37.68 Mbps</text>
    
    <!-- Pandar40P Rear -->
    <text x="50" y="125" font-size="11" fill="#424242">Pandar40P-R</text>
    <text x="180" y="125" font-size="11" fill="#424242">Rear Roof</text>
    <text x="300" y="125" font-size="11" fill="#424242">1.8m</text>
    <text x="400" y="125" font-size="11" fill="#424242">360°</text>
    <text x="500" y="125" font-size="11" fill="#424242">40° (-25~+15)</text>
    <text x="600" y="125" font-size="11" fill="#424242">200m</text>
    <text x="700" y="125" font-size="11" fill="#424242">10/20 Hz</text>
    <text x="800" y="125" font-size="11" fill="#424242">37.68 Mbps</text>
    
    <!-- G32 Front -->
    <text x="50" y="150" font-size="11" fill="#424242">G32-F</text>
    <text x="180" y="150" font-size="11" fill="#424242">Front Bumper</text>
    <text x="300" y="150" font-size="11" fill="#424242">0.8m</text>
    <text x="400" y="150" font-size="11" fill="#424242">120°</text>
    <text x="500" y="150" font-size="11" fill="#424242">10°</text>
    <text x="600" y="150" font-size="11" fill="#424242">250m</text>
    <text x="700" y="150" font-size="11" fill="#424242">10/20/25 Hz</text>
    <text x="800" y="150" font-size="11" fill="#424242">405.5 Mbps</text>
    
    <!-- G32 Left -->
    <text x="50" y="175" font-size="11" fill="#424242">G32-L</text>
    <text x="180" y="175" font-size="11" fill="#424242">Left B-Pillar</text>
    <text x="300" y="175" font-size="11" fill="#424242">1.2m</text>
    <text x="400" y="175" font-size="11" fill="#424242">120°</text>
    <text x="500" y="175" font-size="11" fill="#424242">10°</text>
    <text x="600" y="175" font-size="11" fill="#424242">250m</text>
    <text x="700" y="175" font-size="11" fill="#424242">10/20/25 Hz</text>
    <text x="800" y="175" font-size="11" fill="#424242">405.5 Mbps</text>
    
    <!-- G32 Right -->
    <text x="50" y="200" font-size="11" fill="#424242">G32-R</text>
    <text x="180" y="200" font-size="11" fill="#424242">Right B-Pillar</text>
    <text x="300" y="200" font-size="11" fill="#424242">1.2m</text>
    <text x="400" y="200" font-size="11" fill="#424242">120°</text>
    <text x="500" y="200" font-size="11" fill="#424242">10°</text>
    <text x="600" y="200" font-size="11" fill="#424242">250m</text>
    <text x="700" y="200" font-size="11" fill="#424242">10/20/25 Hz</text>
    <text x="800" y="200" font-size="11" fill="#424242">405.5 Mbps</text>
    
    <!-- MRR-35 Radars -->
    <text x="50" y="225" font-size="11" fill="#424242">MRR-35 (×4)</text>
    <text x="180" y="225" font-size="11" fill="#424242">Corners</text>
    <text x="300" y="225" font-size="11" fill="#424242">0.5m</text>
    <text x="400" y="225" font-size="11" fill="#424242">150°</text>
    <text x="500" y="225" font-size="11" fill="#424242">±10°</text>
    <text x="600" y="225" font-size="11" fill="#424242">300m</text>
    <text x="700" y="225" font-size="11" fill="#424242">50 Hz</text>
    <text x="800" y="225" font-size="11" fill="#424242">5 Mbps</text>
    
    <!-- Cameras -->
    <text x="50" y="250" font-size="11" fill="#424242">Camera-F (×3)</text>
    <text x="180" y="250" font-size="11" fill="#424242">Windshield</text>
    <text x="300" y="250" font-size="11" fill="#424242">1.5m</text>
    <text x="400" y="250" font-size="11" fill="#424242">60°/110°</text>
    <text x="500" y="250" font-size="11" fill="#424242">40°</text>
    <text x="600" y="250" font-size="11" fill="#424242">100m</text>
    <text x="700" y="250" font-size="11" fill="#424242">30/60 fps</text>
    <text x="800" y="250" font-size="11" fill="#424242">177 Mbps</text>
    
    <text x="50" y="275" font-size="11" fill="#424242">Camera-Side (×4)</text>
    <text x="180" y="275" font-size="11" fill="#424242">Mirrors/Pillars</text>
    <text x="300" y="275" font-size="11" fill="#424242">1.2m</text>
    <text x="400" y="275" font-size="11" fill="#424242">120°</text>
    <text x="500" y="275" font-size="11" fill="#424242">80°</text>
    <text x="600" y="275" font-size="11" fill="#424242">50m</text>
    <text x="700" y="275" font-size="11" fill="#424242">30 fps</text>
    <text x="800" y="275" font-size="11" fill="#424242">88 Mbps</text>
    
    <text x="50" y="300" font-size="11" fill="#424242">Camera-R (×1)</text>
    <text x="180" y="300" font-size="11" fill="#424242">Rear</text>
    <text x="300" y="300" font-size="11" fill="#424242">1.5m</text>
    <text x="400" y="300" font-size="11" fill="#424242">120°</text>
    <text x="500" y="300" font-size="11" fill="#424242">60°</text>
    <text x="600" y="300" font-size="11" fill="#424242">50m</text>
    <text x="700" y="300" font-size="11" fill="#424242">30 fps</text>
    <text x="800" y="300" font-size="11" fill="#424242">88 Mbps</text>
    
    <!-- Ultrasonic -->
    <text x="50" y="325" font-size="11" fill="#424242">USS (×12)</text>
    <text x="180" y="325" font-size="11" fill="#424242">Bumpers</text>
    <text x="300" y="325" font-size="11" fill="#424242">0.4m</text>
    <text x="400" y="325" font-size="11" fill="#424242">60°</text>
    <text x="500" y="325" font-size="11" fill="#424242">60°</text>
    <text x="600" y="325" font-size="11" fill="#424242">5m</text>
    <text x="700" y="325" font-size="11" fill="#424242">20 Hz</text>
    <text x="800" y="325" font-size="11" fill="#424242">0.1 Mbps</text>
    
    <!-- IMU/GNSS -->
    <text x="50" y="350" font-size="11" fill="#424242">IMU/GNSS</text>
    <text x="180" y="350" font-size="11" fill="#424242">Center Roof</text>
    <text x="300" y="350" font-size="11" fill="#424242">1.9m</text>
    <text x="400" y="350" font-size="11" fill="#424242">-</text>
    <text x="500" y="350" font-size="11" fill="#424242">-</text>
    <text x="600" y="350" font-size="11" fill="#424242">Global</text>
    <text x="700" y="350" font-size="11" fill="#424242">100/1000 Hz</text>
    <text x="800" y="350" font-size="11" fill="#424242">10 Mbps</text>
    
    <line x1="20" y1="370" x2="880" y2="370" stroke="#e0e0e0" stroke-width="2"/>
    
    <!-- Total -->
    <text x="50" y="395" font-size="12" font-weight="bold" fill="#424242">Total</text>
    <text x="180" y="395" font-size="12" font-weight="bold" fill="#424242">27 Sensors</text>
    <text x="600" y="395" font-size="12" font-weight="bold" fill="#424242">-</text>
    <text x="700" y="395" font-size="12" font-weight="bold" fill="#424242">-</text>
    <text x="800" y="395" font-size="12" font-weight="bold" fill="#4caf50">~1.8 Gbps</text>
    
    <!-- Coverage summary -->
    <text x="50" y="425" font-size="11" fill="#424242">360° Surround View | No Blind Spots | Redundant Coverage | Multi-Modal Fusion</text>
  </g>
  
  <!-- Real-time sensor status indicator -->
  <g id="sensor-status" transform="translate(50, 200)">
    <rect width="400" height="250" rx="15" fill="white" stroke="#e0e0e0" stroke-width="2"/>
    <text x="200" y="30" font-size="16" font-weight="bold" text-anchor="middle" fill="#424242">Sensor Status Monitor</text>
    
    <!-- Status indicators -->
    <g transform="translate(20, 50)">
      <!-- LiDAR status -->
      <circle cx="20" cy="20" r="8" fill="#4caf50">
        <animate attributeName="opacity" values="1;0.5;1" dur="2s" repeatCount="indefinite"/>
      </circle>
      <text x="35" y="25" font-size="11" fill="#424242">Pandar40P (×2): OK - 37.68 Mbps each</text>
      
      <circle cx="20" cy="45" r="8" fill="#4caf50">
        <animate attributeName="opacity" values="1;0.5;1" dur="2.5s" repeatCount="indefinite"/>
      </circle>
      <text x="35" y="50" font-size="11" fill="#424242">G32 (×3): OK - 405.5 Mbps total</text>
      
      <!-- Camera status -->
      <circle cx="20" cy="70" r="8" fill="#ff9800">
        <animate attributeName="opacity" values="1;0.5;1" dur="1.5s" repeatCount="indefinite"/>
      </circle>
      <text x="35" y="75" font-size="11" fill="#424242">Cameras (×8): OK - 30 fps @ 1920×1536</text>
      
      <!-- Radar status -->
      <circle cx="20" cy="95" r="8" fill="#2196f3">
        <animate attributeName="opacity" values="1;0.5;1" dur="3s" repeatCount="indefinite"/>
      </circle>
      <text x="35" y="100" font-size="11" fill="#424242">MRR-35 (×4): OK - Object tracking active</text>
      
      <!-- Ultrasonic status -->
      <circle cx="20" cy="120" r="8" fill="#9c27b0">
        <animate attributeName="opacity" values="1;0.5;1" dur="4s" repeatCount="indefinite"/>
      </circle>
      <text x="35" y="125" font-size="11" fill="#424242">Ultrasonic (×12): OK - Parking mode</text>
      
      <!-- IMU/GNSS status -->
      <circle cx="20" cy="145" r="8" fill="#00bcd4">
        <animate attributeName="opacity" values="1;0.5;1" dur="2.2s" repeatCount="indefinite"/>
      </circle>
      <text x="35" y="150" font-size="11" fill="#424242">IMU/GNSS: OK - RTK Fix (±2cm)</text>
      
      <!-- System stats -->
      <rect x="0" y="170" width="360" height="1" fill="#e0e0e0"/>
      <text x="5" y="190" font-size="12" font-weight="bold" fill="#424242">System Performance:</text>
      <text x="5" y="210" font-size="11" fill="#424242">• Total Bandwidth: 1.48 Gbps / 2.5 Gbps (59%)</text>
      <text x="5" y="230" font-size="11" fill="#424242">• Sensor Fusion Rate: 30 Hz</text>
      <text x="5" y="250" font-size="11" fill="#424242">• Detection Latency: &lt;50ms</text>
      <text x="5" y="270" font-size="11" fill="#424242">• Time Sync Accuracy: ±1μs (gPTP)</text>
    </g>
  </g>
</svg>