<?xml version="1.0" encoding="UTF-8"?>
<svg xmlns="http://www.w3.org/2000/svg" viewBox="0 0 1600 1200">
  <defs>
    <!-- Gradients -->
    <linearGradient id="sensorGrad" x1="0%" y1="0%" x2="100%" y2="100%">
      <stop offset="0%" style="stop-color:#4caf50;stop-opacity:1" />
      <stop offset="100%" style="stop-color:#8bc34a;stop-opacity:1" />
    </linearGradient>
    
    <linearGradient id="switchGrad" x1="0%" y1="0%" x2="100%" y2="100%">
      <stop offset="0%" style="stop-color:#667eea;stop-opacity:1" />
      <stop offset="100%" style="stop-color:#764ba2;stop-opacity:1" />
    </linearGradient>
    
    <linearGradient id="ecuGrad" x1="0%" y1="0%" x2="100%" y2="100%">
      <stop offset="0%" style="stop-color:#ff9800;stop-opacity:1" />
      <stop offset="100%" style="stop-color:#f57c00;stop-opacity:1" />
    </linearGradient>
    
    <linearGradient id="acuGrad" x1="0%" y1="0%" x2="100%" y2="100%">
      <stop offset="0%" style="stop-color:#2196f3;stop-opacity:1" />
      <stop offset="100%" style="stop-color:#1976d2;stop-opacity:1" />
    </linearGradient>
    
    <!-- Filters -->
    <filter id="shadow" x="-50%" y="-50%" width="200%" height="200%">
      <feDropShadow dx="3" dy="3" stdDeviation="5" flood-opacity="0.2"/>
    </filter>
    
    <filter id="glow">
      <feGaussianBlur stdDeviation="4" result="coloredBlur"/>
      <feMerge>
        <feMergeNode in="coloredBlur"/>
        <feMergeNode in="SourceGraphic"/>
      </feMerge>
    </filter>
    
    <!-- Arrow markers -->
    <marker id="arrowGreen" markerWidth="10" markerHeight="10" refX="9" refY="3" orient="auto" markerUnits="strokeWidth">
      <path d="M0,0 L0,6 L9,3 z" fill="#4caf50" />
    </marker>
    
    <marker id="arrowBlue" markerWidth="10" markerHeight="10" refX="9" refY="3" orient="auto" markerUnits="strokeWidth">
      <path d="M0,0 L0,6 L9,3 z" fill="#2196f3" />
    </marker>
    
    <marker id="arrowOrange" markerWidth="10" markerHeight="10" refX="9" refY="3" orient="auto" markerUnits="strokeWidth">
      <path d="M0,0 L0,6 L9,3 z" fill="#ff9800" />
    </marker>
    
    <!-- Patterns -->
    <pattern id="gridPattern" width="20" height="20" patternUnits="userSpaceOnUse">
      <path d="M 20 0 L 0 0 0 20" fill="none" stroke="#e0e0e0" stroke-width="0.5"/>
    </pattern>
    
    <pattern id="diagonalPattern" width="10" height="10" patternUnits="userSpaceOnUse">
      <path d="M0,10 L10,0" stroke="#ddd" stroke-width="1"/>
    </pattern>
  </defs>
  
  <!-- Background -->
  <rect width="1600" height="1200" fill="#fafafa"/>
  
  <!-- Title -->
  <text x="800" y="40" font-family="Arial, sans-serif" font-size="32" font-weight="bold" text-anchor="middle" fill="#333">
    A2Z 자율주행차 완전 시스템 아키텍처
  </text>
  
  <!-- Zone Containers -->
  <!-- Front Zone -->
  <g id="front-zone">
    <rect x="50" y="100" width="350" height="400" rx="20" fill="#e8f5e9" stroke="#4caf50" stroke-width="2" stroke-dasharray="10,5" opacity="0.3"/>
    <text x="225" y="130" font-size="20" font-weight="bold" text-anchor="middle" fill="#2e7d32">Front Zone</text>
    
    <!-- Front Sensors -->
    <g id="front-sensors">
      <!-- Pandar40P -->
      <circle cx="150" cy="200" r="35" fill="url(#sensorGrad)" filter="url(#shadow)"/>
      <text x="150" y="205" font-size="12" text-anchor="middle" fill="white" font-weight="bold">Pandar40P</text>
      <text x="150" y="250" font-size="10" text-anchor="middle" fill="#666">360° LiDAR</text>
      <text x="150" y="265" font-size="9" text-anchor="middle" fill="#999">37.68 Mbps</text>
      
      <!-- G32 -->
      <rect x="250" y="170" width="70" height="60" rx="10" fill="url(#sensorGrad)" filter="url(#shadow)"/>
      <text x="285" y="195" font-size="12" text-anchor="middle" fill="white" font-weight="bold">G32</text>
      <text x="285" y="210" font-size="9" text-anchor="middle" fill="white">Solid-State</text>
      <text x="285" y="250" font-size="9" text-anchor="middle" fill="#999">405.5 Mbps</text>
      
      <!-- Front Cameras -->
      <rect x="100" y="300" width="60" height="45" rx="8" fill="#ff9800" filter="url(#shadow)"/>
      <text x="130" y="325" font-size="11" text-anchor="middle" fill="white">CAM-F1</text>
      <text x="130" y="360" font-size="9" text-anchor="middle" fill="#999">60° FOV</text>
      
      <rect x="200" y="300" width="60" height="45" rx="8" fill="#ff9800" filter="url(#shadow)"/>
      <text x="230" y="325" font-size="11" text-anchor="middle" fill="white">CAM-F2</text>
      <text x="230" y="360" font-size="9" text-anchor="middle" fill="#999">110° FOV</text>
      
      <rect x="300" y="300" width="60" height="45" rx="8" fill="#ff9800" filter="url(#shadow)"/>
      <text x="330" y="325" font-size="11" text-anchor="middle" fill="white">CAM-F3</text>
      <text x="330" y="360" font-size="9" text-anchor="middle" fill="#999">Wide</text>
    </g>
    
    <!-- Front Zone Switch -->
    <rect x="125" y="400" width="200" height="80" rx="15" fill="url(#switchGrad)" filter="url(#shadow)"/>
    <text x="225" y="425" font-size="14" text-anchor="middle" fill="white" font-weight="bold">TSN Switch Front</text>
    <text x="225" y="445" font-size="11" text-anchor="middle" fill="white">LAN9662 - 2.5GbE</text>
    <text x="225" y="465" font-size="10" text-anchor="middle" fill="#e0e0e0">8x 1000BASE-T1 + 2x 2.5G</text>
  </g>
  
  <!-- Rear Zone -->
  <g id="rear-zone">
    <rect x="1200" y="100" width="350" height="400" rx="20" fill="#e8f5e9" stroke="#4caf50" stroke-width="2" stroke-dasharray="10,5" opacity="0.3"/>
    <text x="1375" y="130" font-size="20" font-weight="bold" text-anchor="middle" fill="#2e7d32">Rear Zone</text>
    
    <!-- Rear Sensors -->
    <g id="rear-sensors">
      <!-- Pandar40P -->
      <circle cx="1300" cy="200" r="35" fill="url(#sensorGrad)" filter="url(#shadow)"/>
      <text x="1300" y="205" font-size="12" text-anchor="middle" fill="white" font-weight="bold">Pandar40P</text>
      <text x="1300" y="250" font-size="10" text-anchor="middle" fill="#666">360° LiDAR</text>
      
      <!-- Rear Cameras -->
      <rect x="1400" y="180" width="60" height="45" rx="8" fill="#ff9800" filter="url(#shadow)"/>
      <text x="1430" y="205" font-size="11" text-anchor="middle" fill="white">CAM-R1</text>
      
      <rect x="1400" y="250" width="60" height="45" rx="8" fill="#ff9800" filter="url(#shadow)"/>
      <text x="1430" y="275" font-size="11" text-anchor="middle" fill="white">CAM-R2</text>
      
      <!-- Ultrasonic sensors -->
      <g id="ultrasonic">
        <ellipse cx="1300" cy="320" rx="30" ry="20" fill="#9c27b0" filter="url(#shadow)"/>
        <text x="1300" y="325" font-size="10" text-anchor="middle" fill="white">USS x4</text>
      </g>
    </g>
    
    <!-- Rear Zone Switch -->
    <rect x="1275" y="400" width="200" height="80" rx="15" fill="url(#switchGrad)" filter="url(#shadow)"/>
    <text x="1375" y="425" font-size="14" text-anchor="middle" fill="white" font-weight="bold">TSN Switch Rear</text>
    <text x="1375" y="445" font-size="11" text-anchor="middle" fill="white">LAN9662 - 2.5GbE</text>
    <text x="1375" y="465" font-size="10" text-anchor="middle" fill="#e0e0e0">8x 1000BASE-T1 + 2x 2.5G</text>
  </g>
  
  <!-- Left Zone -->
  <g id="left-zone">
    <rect x="50" y="550" width="300" height="350" rx="20" fill="#fff3e0" stroke="#ff9800" stroke-width="2" stroke-dasharray="10,5" opacity="0.3"/>
    <text x="200" y="580" font-size="20" font-weight="bold" text-anchor="middle" fill="#e65100">Left Zone</text>
    
    <!-- Left Sensors -->
    <g id="left-sensors">
      <!-- G32 -->
      <rect x="100" y="620" width="70" height="60" rx="10" fill="url(#sensorGrad)" filter="url(#shadow)"/>
      <text x="135" y="655" font-size="12" text-anchor="middle" fill="white" font-weight="bold">G32-L</text>
      
      <!-- MRR-35 Radar -->
      <ellipse cx="260" cy="650" rx="40" ry="30" fill="#2196f3" filter="url(#shadow)"/>
      <text x="260" y="655" font-size="12" text-anchor="middle" fill="white">MRR-35L</text>
      
      <!-- Left Camera -->
      <rect x="165" y="720" width="60" height="45" rx="8" fill="#ff9800" filter="url(#shadow)"/>
      <text x="195" y="745" font-size="11" text-anchor="middle" fill="white">CAM-L</text>
    </g>
    
    <!-- Left Zone Switch -->
    <rect x="100" y="800" width="200" height="70" rx="15" fill="url(#switchGrad)" filter="url(#shadow)"/>
    <text x="200" y="825" font-size="14" text-anchor="middle" fill="white" font-weight="bold">TSN Switch Left</text>
    <text x="200" y="845" font-size="11" text-anchor="middle" fill="white">LAN9668 - 1GbE</text>
  </g>
  
  <!-- Right Zone -->
  <g id="right-zone">
    <rect x="1250" y="550" width="300" height="350" rx="20" fill="#fff3e0" stroke="#ff9800" stroke-width="2" stroke-dasharray="10,5" opacity="0.3"/>
    <text x="1400" y="580" font-size="20" font-weight="bold" text-anchor="middle" fill="#e65100">Right Zone</text>
    
    <!-- Right Sensors -->
    <g id="right-sensors">
      <!-- G32 -->
      <rect x="1430" y="620" width="70" height="60" rx="10" fill="url(#sensorGrad)" filter="url(#shadow)"/>
      <text x="1465" y="655" font-size="12" text-anchor="middle" fill="white" font-weight="bold">G32-R</text>
      
      <!-- MRR-35 Radar -->
      <ellipse cx="1340" cy="650" rx="40" ry="30" fill="#2196f3" filter="url(#shadow)"/>
      <text x="1340" y="655" font-size="12" text-anchor="middle" fill="white">MRR-35R</text>
      
      <!-- Right Camera -->
      <rect x="1375" y="720" width="60" height="45" rx="8" fill="#ff9800" filter="url(#shadow)"/>
      <text x="1405" y="745" font-size="11" text-anchor="middle" fill="white">CAM-R</text>
    </g>
    
    <!-- Right Zone Switch -->
    <rect x="1300" y="800" width="200" height="70" rx="15" fill="url(#switchGrad)" filter="url(#shadow)"/>
    <text x="1400" y="825" font-size="14" text-anchor="middle" fill="white" font-weight="bold">TSN Switch Right</text>
    <text x="1400" y="845" font-size="11" text-anchor="middle" fill="white">LAN9668 - 1GbE</text>
  </g>
  
  <!-- Central Backbone -->
  <g id="central-backbone">
    <rect x="450" y="300" width="700" height="400" rx="25" fill="#f3e5f5" stroke="#9c27b0" stroke-width="3" opacity="0.2"/>
    <text x="800" y="335" font-size="24" font-weight="bold" text-anchor="middle" fill="#4a148c">Central Computing & Backbone</text>
    
    <!-- Backbone Switches -->
    <g id="backbone-switches">
      <!-- Primary Backbone Switch -->
      <rect x="500" y="380" width="250" height="100" rx="15" fill="url(#switchGrad)" filter="url(#shadow)"/>
      <text x="625" y="410" font-size="16" text-anchor="middle" fill="white" font-weight="bold">Backbone Switch A</text>
      <text x="625" y="435" font-size="12" text-anchor="middle" fill="white">LAN9692 - 10GbE</text>
      <text x="625" y="455" font-size="10" text-anchor="middle" fill="#e0e0e0">4x 10G + 8x 2.5G</text>
      <circle cx="520" cy="400" r="8" fill="#4caf50" filter="url(#glow)"/>
      <circle cx="520" cy="430" r="8" fill="#4caf50" filter="url(#glow)"/>
      <circle cx="520" cy="460" r="8" fill="#4caf50" filter="url(#glow)"/>
      
      <!-- Secondary Backbone Switch -->
      <rect x="850" y="380" width="250" height="100" rx="15" fill="url(#switchGrad)" filter="url(#shadow)"/>
      <text x="975" y="410" font-size="16" text-anchor="middle" fill="white" font-weight="bold">Backbone Switch B</text>
      <text x="975" y="435" font-size="12" text-anchor="middle" fill="white">LAN9692 - 10GbE</text>
      <text x="975" y="455" font-size="10" text-anchor="middle" fill="#e0e0e0">4x 10G + 8x 2.5G</text>
      <circle cx="1080" cy="400" r="8" fill="#4caf50" filter="url(#glow)"/>
      <circle cx="1080" cy="430" r="8" fill="#4caf50" filter="url(#glow)"/>
      <circle cx="1080" cy="460" r="8" fill="#4caf50" filter="url(#glow)"/>
    </g>
    
    <!-- Main Computing Units -->
    <g id="main-computing">
      <!-- ACU_NO (NVIDIA) -->
      <rect x="500" y="540" width="200" height="120" rx="15" fill="url(#acuGrad)" filter="url(#shadow)"/>
      <text x="600" y="570" font-size="16" text-anchor="middle" fill="white" font-weight="bold">ACU_NO</text>
      <text x="600" y="590" font-size="12" text-anchor="middle" fill="white">NVIDIA Orin</text>
      <text x="600" y="608" font-size="10" text-anchor="middle" fill="#e0e0e0">275 TOPS</text>
      <text x="600" y="625" font-size="9" text-anchor="middle" fill="#e0e0e0">Perception & AI</text>
      <rect x="520" y="635" width="160" height="15" rx="5" fill="#fff" opacity="0.3"/>
      <text x="600" y="646" font-size="9" text-anchor="middle" fill="white">2x 10GbE Ports</text>
      
      <!-- ACU_IT (Intel) -->
      <rect x="750" y="540" width="200" height="120" rx="15" fill="url(#acuGrad)" filter="url(#shadow)"/>
      <text x="850" y="570" font-size="16" text-anchor="middle" fill="white" font-weight="bold">ACU_IT</text>
      <text x="850" y="590" font-size="12" text-anchor="middle" fill="white">Intel Tiger Lake</text>
      <text x="850" y="608" font-size="10" text-anchor="middle" fill="#e0e0e0">x86 Platform</text>
      <text x="850" y="625" font-size="9" text-anchor="middle" fill="#e0e0e0">Control & Decision</text>
      <rect x="770" y="635" width="160" height="15" rx="5" fill="#fff" opacity="0.3"/>
      <text x="850" y="646" font-size="9" text-anchor="middle" fill="white">2x 10GbE Ports</text>
      
      <!-- Gateway/CMU -->
      <rect x="1000" y="540" width="120" height="120" rx="15" fill="#9c27b0" filter="url(#shadow)"/>
      <text x="1060" y="570" font-size="14" text-anchor="middle" fill="white" font-weight="bold">CMU</text>
      <text x="1060" y="590" font-size="10" text-anchor="middle" fill="white">Gateway</text>
      <text x="1060" y="608" font-size="9" text-anchor="middle" fill="#e0e0e0">CAN/LIN</text>
      <text x="1060" y="625" font-size="9" text-anchor="middle" fill="#e0e0e0">Legacy ECU</text>
      <text x="1060" y="645" font-size="9" text-anchor="middle" fill="#e0e0e0">Bridge</text>
    </g>
  </g>
  
  <!-- Support ECUs -->
  <g id="support-ecus">
    <rect x="450" y="750" width="700" height="150" rx="20" fill="#ffebee" stroke="#f44336" stroke-width="2" stroke-dasharray="10,5" opacity="0.3"/>
    <text x="800" y="780" font-size="20" font-weight="bold" text-anchor="middle" fill="#b71c1c">Support ECUs</text>
    
    <!-- Individual ECUs -->
    <rect x="480" y="810" width="100" height="60" rx="10" fill="url(#ecuGrad)" filter="url(#shadow)"/>
    <text x="530" y="835" font-size="12" text-anchor="middle" fill="white" font-weight="bold">VCU</text>
    <text x="530" y="855" font-size="9" text-anchor="middle" fill="white">Vehicle Ctrl</text>
    
    <rect x="610" y="810" width="100" height="60" rx="10" fill="url(#ecuGrad)" filter="url(#shadow)"/>
    <text x="660" y="835" font-size="12" text-anchor="middle" fill="white" font-weight="bold">TCU</text>
    <text x="660" y="855" font-size="9" text-anchor="middle" fill="white">Telematics</text>
    
    <rect x="740" y="810" width="100" height="60" rx="10" fill="url(#ecuGrad)" filter="url(#shadow)"/>
    <text x="790" y="835" font-size="12" text-anchor="middle" fill="white" font-weight="bold">EDR</text>
    <text x="790" y="855" font-size="9" text-anchor="middle" fill="white">Event Record</text>
    
    <rect x="870" y="810" width="100" height="60" rx="10" fill="url(#ecuGrad)" filter="url(#shadow)"/>
    <text x="920" y="835" font-size="12" text-anchor="middle" fill="white" font-weight="bold">DSSAD</text>
    <text x="920" y="855" font-size="9" text-anchor="middle" fill="white">Data Storage</text>
    
    <rect x="1000" y="810" width="100" height="60" rx="10" fill="#e91e63" filter="url(#shadow)"/>
    <text x="1050" y="835" font-size="12" text-anchor="middle" fill="white" font-weight="bold">BCM</text>
    <text x="1050" y="855" font-size="9" text-anchor="middle" fill="white">Body Control</text>
  </g>
  
  <!-- Network Connections -->
  <g id="network-connections">
    <!-- Front to Backbone -->
    <line x1="325" y1="440" x2="500" y2="430" stroke="#4caf50" stroke-width="4" marker-end="url(#arrowGreen)"/>
    <text x="412" y="430" font-size="10" fill="#666">2.5GbE</text>
    
    <!-- Rear to Backbone -->
    <line x1="1275" y1="440" x2="1100" y2="430" stroke="#4caf50" stroke-width="4" marker-end="url(#arrowGreen)"/>
    <text x="1187" y="430" font-size="10" fill="#666">2.5GbE</text>
    
    <!-- Left to Backbone -->
    <line x1="300" y1="835" x2="520" y2="460" stroke="#ff9800" stroke-width="3" marker-end="url(#arrowOrange)"/>
    <text x="410" y="647" font-size="10" fill="#666">1GbE</text>
    
    <!-- Right to Backbone -->
    <line x1="1300" y1="835" x2="1080" y2="460" stroke="#ff9800" stroke-width="3" marker-end="url(#arrowOrange)"/>
    <text x="1190" y="647" font-size="10" fill="#666">1GbE</text>
    
    <!-- Backbone interconnect -->
    <line x1="750" y1="430" x2="850" y2="430" stroke="#9c27b0" stroke-width="5"/>
    <text x="800" y="420" font-size="10" fill="#666" text-anchor="middle">10GbE Mesh</text>
    
    <!-- ACU connections -->
    <line x1="600" y1="540" x2="625" y2="480" stroke="#2196f3" stroke-width="4" marker-end="url(#arrowBlue)"/>
    <line x1="850" y1="540" x2="875" y2="480" stroke="#2196f3" stroke-width="4" marker-end="url(#arrowBlue)"/>
    
    <!-- Dual-homing paths -->
    <path d="M 600 660 Q 550 700 625 480" stroke="#2196f3" stroke-width="2" stroke-dasharray="5,5" fill="none"/>
    <path d="M 850 660 Q 900 700 975 480" stroke="#2196f3" stroke-width="2" stroke-dasharray="5,5" fill="none"/>
    
    <!-- Support ECU connections -->
    <line x1="530" y1="810" x2="625" y2="480" stroke="#ff9800" stroke-width="2"/>
    <line x1="660" y1="810" x2="700" y2="480" stroke="#ff9800" stroke-width="2"/>
    <line x1="790" y1="810" x2="875" y2="480" stroke="#ff9800" stroke-width="2"/>
    <line x1="920" y1="810" x2="950" y2="480" stroke="#ff9800" stroke-width="2"/>
  </g>
  
  <!-- Data Flow Indicators -->
  <g id="data-flow-indicators">
    <!-- Sensor Data Flow -->
    <g id="sensor-flow">
      <rect x="50" y="950" width="200" height="80" rx="10" fill="#e8f5e9" stroke="#4caf50" stroke-width="2"/>
      <text x="150" y="975" font-size="14" font-weight="bold" text-anchor="middle" fill="#2e7d32">Sensor Data Flow</text>
      <text x="150" y="995" font-size="10" text-anchor="middle" fill="#666">Raw → Processed</text>
      <text x="150" y="1010" font-size="10" text-anchor="middle" fill="#666">~1.8 Gbps Total</text>
    </g>
    
    <!-- Control Data Flow -->
    <g id="control-flow">
      <rect x="300" y="950" width="200" height="80" rx="10" fill="#e3f2fd" stroke="#2196f3" stroke-width="2"/>
      <text x="400" y="975" font-size="14" font-weight="bold" text-anchor="middle" fill="#1565c0">Control Commands</text>
      <text x="400" y="995" font-size="10" text-anchor="middle" fill="#666">ACU → Actuators</text>
      <text x="400" y="1010" font-size="10" text-anchor="middle" fill="#666">&lt;1ms latency</text>
    </g>
    
    <!-- TSN Features -->
    <g id="tsn-features">
      <rect x="550" y="950" width="250" height="80" rx="10" fill="#f3e5f5" stroke="#9c27b0" stroke-width="2"/>
      <text x="675" y="975" font-size="14" font-weight="bold" text-anchor="middle" fill="#6a1b9a">TSN Features Active</text>
      <text x="675" y="995" font-size="10" text-anchor="middle" fill="#666">TAS, CBS, FRER, gPTP</text>
      <text x="675" y="1010" font-size="10" text-anchor="middle" fill="#666">E2E &lt;10ms, 99.999% uptime</text>
    </g>
    
    <!-- Bandwidth Allocation -->
    <g id="bandwidth-allocation">
      <rect x="850" y="950" width="300" height="80" rx="10" fill="#fff3e0" stroke="#ff9800" stroke-width="2"/>
      <text x="1000" y="975" font-size="14" font-weight="bold" text-anchor="middle" fill="#e65100">Bandwidth Allocation</text>
      <rect x="870" y="990" width="260" height="25" rx="5" fill="#f5f5f5"/>
      <rect x="870" y="990" width="78" height="25" fill="#4caf50"/>
      <rect x="948" y="990" width="52" height="25" fill="#2196f3"/>
      <rect x="1000" y="990" width="65" height="25" fill="#ff9800"/>
      <rect x="1065" y="990" width="65" height="25" fill="#9e9e9e"/>
      <text x="909" y="1006" font-size="9" text-anchor="middle" fill="white">Safety 30%</text>
      <text x="974" y="1006" font-size="9" text-anchor="middle" fill="white">Video 20%</text>
      <text x="1032" y="1006" font-size="9" text-anchor="middle" fill="white">Control 25%</text>
      <text x="1097" y="1006" font-size="9" text-anchor="middle" fill="white">Other 25%</text>
    </g>
    
    <!-- Redundancy Paths -->
    <g id="redundancy-paths">
      <rect x="1200" y="950" width="350" height="80" rx="10" fill="#ffebee" stroke="#f44336" stroke-width="2"/>
      <text x="1375" y="975" font-size="14" font-weight="bold" text-anchor="middle" fill="#c62828">Redundancy & FRER</text>
      <text x="1375" y="995" font-size="10" text-anchor="middle" fill="#666">Dual Path: Primary + Secondary</text>
      <text x="1375" y="1010" font-size="10" text-anchor="middle" fill="#666">Seamless failover &lt;1 frame loss</text>
    </g>
  </g>
  
  <!-- System Metrics Dashboard -->
  <g id="metrics-dashboard">
    <rect x="50" y="1050" width="1500" height="120" rx="15" fill="#263238" stroke="#37474f" stroke-width="2"/>
    <text x="800" y="1080" font-size="18" font-weight="bold" text-anchor="middle" fill="white">System Performance Metrics</text>
    
    <!-- Metrics -->
    <g id="metric-latency">
      <circle cx="200" cy="1120" r="25" fill="#4caf50"/>
      <text x="200" y="1125" font-size="12" text-anchor="middle" fill="white" font-weight="bold">8ms</text>
      <text x="200" y="1150" font-size="10" text-anchor="middle" fill="#aaa">E2E Latency</text>
    </g>
    
    <g id="metric-bandwidth">
      <circle cx="400" cy="1120" r="25" fill="#2196f3"/>
      <text x="400" y="1125" font-size="12" text-anchor="middle" fill="white" font-weight="bold">1.8G</text>
      <text x="400" y="1150" font-size="10" text-anchor="middle" fill="#aaa">Bandwidth</text>
    </g>
    
    <g id="metric-cpu">
      <circle cx="600" cy="1120" r="25" fill="#ff9800"/>
      <text x="600" y="1125" font-size="12" text-anchor="middle" fill="white" font-weight="bold">65%</text>
      <text x="600" y="1150" font-size="10" text-anchor="middle" fill="#aaa">CPU Usage</text>
    </g>
    
    <g id="metric-fps">
      <circle cx="800" cy="1120" r="25" fill="#9c27b0"/>
      <text x="800" y="1125" font-size="12" text-anchor="middle" fill="white" font-weight="bold">30fps</text>
      <text x="800" y="1150" font-size="10" text-anchor="middle" fill="#aaa">Processing</text>
    </g>
    
    <g id="metric-uptime">
      <circle cx="1000" cy="1120" r="25" fill="#00bcd4"/>
      <text x="1000" y="1125" font-size="12" text-anchor="middle" fill="white" font-weight="bold">99.9%</text>
      <text x="1000" y="1150" font-size="10" text-anchor="middle" fill="#aaa">Uptime</text>
    </g>
    
    <g id="metric-temp">
      <circle cx="1200" cy="1120" r="25" fill="#ff5722"/>
      <text x="1200" y="1125" font-size="12" text-anchor="middle" fill="white" font-weight="bold">52°C</text>
      <text x="1200" y="1150" font-size="10" text-anchor="middle" fill="#aaa">Temperature</text>
    </g>
    
    <g id="metric-power">
      <circle cx="1400" cy="1120" r="25" fill="#ffc107"/>
      <text x="1400" y="1125" font-size="12" text-anchor="middle" fill="white" font-weight="bold">450W</text>
      <text x="1400" y="1150" font-size="10" text-anchor="middle" fill="#aaa">Power</text>
    </g>
  </g>
</svg>